<svg width="57" height="129" viewBox="0 0 57 129" fill="none" xmlns="http://www.w3.org/2000/svg">
<g clip-path="url(#clip0_105_5512)">
<path d="M12.7527 16C10.7283 22.2055 8.22871 31.2055 8.02213 38.2945C7.71226 48.2192 10.625 53.5822 18.7641 58.0616C19.3219 58.3699 20.1895 58.7397 21.1191 59.1507C21.3876 59.274 21.6769 59.3973 21.9867 59.5205C26.4694 61.4932 31.5306 61.4932 36.0133 59.5205C36.3231 59.3973 36.6124 59.274 36.8809 59.1507C37.8105 58.7603 38.6781 58.3699 39.2359 58.0616C47.375 53.5822 50.2877 48.2192 49.9779 38.2945C49.7713 31.5548 47.375 22.5959 45.2473 16C41.3636 17.0685 36.0959 17.7055 29.0103 17.7055C21.9247 17.7055 16.6777 17.0479 12.7734 16" fill="#FFBE3D"/>
<path d="M36.0076 118C45.3706 118.573 50 120.696 50 122.989C50 125.749 40.1365 128 28 128C15.8635 128 6 125.749 6 122.989C6 120.633 10.9005 118.679 20.5346 118.149" stroke="black" stroke-miterlimit="10"/>
<path d="M9.11339 6C9.11339 6 1.45211 24.7928 1.0241 38.2786C0.660298 50.1828 4.36254 58.2576 15.7047 64.3762C19.5995 66.4781 27.3036 68.1222 27.1538 73.6581V99.3811C27.1538 100.775 27.0468 102.17 26.897 103.564C26.576 106.623 25.9768 109.641 24.9923 112.471C23.8795 115.676 22.1675 118.632 19.7707 120.484C19.3213 120.838 18.8505 121.129 18.3369 121.4C17.7805 121.691 17.0529 121.816 16.5821 122.253C16.4751 122.336 16.3895 122.461 16.3467 122.607C15.9401 124.251 24.6071 124.813 25.2706 124.854C26.8542 124.958 28.4164 125 30 125" stroke="black" stroke-miterlimit="10"/>
<path d="M36 27.5C36 28.3333 34.865 29 33.5153 29C32.1656 29 31 28.3333 31 27.5C31 26.6667 32.135 26 33.5153 26C34.8957 26 36 26.6667 36 27.5Z" fill="black"/>
<path d="M33 52.5C33 53.3333 32.3374 54 31.5092 54C30.681 54 30 53.3333 30 52.5C30 51.6667 30.681 51 31.5092 51C32.3374 51 33 51.6667 33 52.5Z" fill="black"/>
<path d="M25 38C25 38.5517 24.5517 39 24 39C23.4483 39 23 38.5517 23 38C23 37.4483 23.4483 37 24 37C24.5517 37 25 37.4483 25 38Z" fill="black"/>
<path d="M42 46C42 46.561 41.561 47 41 47C40.439 47 40 46.561 40 46C40 45.439 40.439 45 41 45C41.561 45 42 45.439 42 46Z" fill="black"/>
<path d="M23 24.9913C23 25.5478 22.5517 26 22 26C21.4483 26 21 25.5478 21 24.9913C21 24.4348 21.4483 24 22 24C22.5517 24 23 24.4522 23 24.9913Z" fill="black"/>
<path d="M48.9603 6.50633C49.713 9.12236 39.6424 11 29.531 11C24.1396 11 19.2569 10.4515 15.7169 9.5443C12.1769 8.63713 10 7.39241 10 6C10 4.92405 11.3428 3.97468 13.5807 3.1097C16.0424 2.18143 18.5652 1.86498 18.5652 1.86498C21.6983 1.31646 25.462 1 29.531 1C34.9224 1 39.8661 1.35865 43.3451 2.4557C46.8241 3.55274 48.472 4.79747 48.9603 6.50633Z" stroke="black" stroke-miterlimit="10"/>
<path d="M48.3665 6C48.3665 6 55.5791 24.3704 55.9776 37.9131C56.3163 49.8674 52.8694 57.9763 42.3095 64.1207C38.6832 66.2315 31.5105 67.8825 31.6499 73.4417V99.2731C31.6499 100.673 31.7496 102.074 31.889 103.474C32.1879 106.546 32.7458 109.576 33.6623 112.419C34.6984 115.637 36.2923 118.605 38.5238 120.465C38.9422 120.82 39.3806 121.113 39.8588 121.384C40.3768 121.677 41.0542 121.802 41.4926 122.241C41.5922 122.325 41.6719 122.45 41.7117 122.597C42.0903 124.248 34.0209 124.812 33.4033 124.854C31.9289 124.958 30.4744 125 29 125" stroke="black" stroke-miterlimit="10"/>
<path d="M30 11C24.4792 11 19.4792 10.4515 15.8542 9.5443C12.2292 8.63713 10 7.39241 10 6" stroke="black" stroke-miterlimit="10"/>
</g>
<defs>
<clipPath id="clip0_105_5512">
<rect width="57" height="129" fill="white"/>
</clipPath>
</defs>
</svg>
