<svg width="89" height="113" viewBox="0 0 89 113" fill="none" xmlns="http://www.w3.org/2000/svg">
<mask id="mask0_105_5612" style="mask-type:luminance" maskUnits="userSpaceOnUse" x="0" y="0" width="89" height="113">
<path d="M89 0H0V112.651H89V0Z" fill="white"/>
</mask>
<g mask="url(#mask0_105_5612)">
<path d="M43.32 85.0167C28.3452 85.0167 16.8439 82.3768 12.8455 80.8021L11.8574 48.1199C18.1407 49.6174 26.8323 51.7169 42.6716 51.7169C58.511 51.7169 68.5148 50.1114 74.7827 48.6139L73.8101 80.8021C69.8116 82.3613 58.3103 85.0012 43.3355 85.0012" fill="#845E39"/>
<path d="M56.4712 25.3646C52.3802 25.5962 47.9495 25.7197 43.3335 25.7197C22.554 25.7197 5.72656 23.1878 5.72656 20.0539C5.72656 16.92 22.5694 14.3882 43.3335 14.3882C55.4523 14.3882 66.228 15.2527 73.0979 16.5958" stroke="black" stroke-miterlimit="10"/>
<path d="M7.64258 83.3494C7.64258 85.9584 23.8988 90.2965 43.3198 90.2965C62.7408 90.2965 79.0124 85.9584 79.0124 83.3494" stroke="black" stroke-miterlimit="10"/>
<path d="M56.3024 47.9501L59.8531 81.5277C59.9303 82.2533 59.7451 82.9171 59.3746 83.4883L58.8805 84.0904C58.3865 84.5536 57.7536 84.8623 57.0434 84.9395L22.7557 88.5674C21.0266 88.7527 19.4674 87.5331 19.2975 85.8195L15.7468 52.2419C15.6696 51.5163 15.8703 50.8061 16.2563 50.2349V50.204L16.6422 49.7563C17.1208 49.2314 17.8001 48.9073 18.5565 48.8146L52.8597 45.1867C53.8478 45.0786 54.774 45.4337 55.407 46.0667C55.9164 46.5452 56.2561 47.1936 56.3333 47.9192L56.3024 47.9501Z" stroke="black" stroke-miterlimit="10"/>
<path d="M69.3794 49.0462L71.34 67.6181C71.4326 68.4981 71.1548 69.3472 70.599 69.9492L59.391 83.4729C59.7615 82.9017 59.9468 82.2379 59.8696 81.5123L56.3189 47.9501C56.2417 47.2245 55.902 46.5607 55.3926 46.0975L60.4871 39.8606" stroke="black" stroke-miterlimit="10"/>
<path d="M60.4706 39.8605L55.3761 46.0975C54.7432 45.4491 53.8169 45.1094 52.8288 45.2021L18.5256 48.83C17.7692 48.9072 17.0899 49.2468 16.6113 49.7563L27.8965 36.0628L28.0046 35.9238C28.514 35.3835 29.2087 34.9975 30.0115 34.9204L54.8203 32.2959" stroke="black" stroke-miterlimit="10"/>
<path d="M74.3958 27.4794C75.6617 24.1294 71.6787 12.026 71.6787 12.026C75.6154 9.07734 77.0511 8.55245 80.818 5.72729C80.818 5.72729 83.2881 10.3896 81.4355 17.1668C81.4355 17.1668 78.8419 26.4914 74.3958 27.4949V27.4794Z" stroke="#843939" stroke-miterlimit="10"/>
<path d="M60.641 21.1189C60.641 21.1189 57.3527 21.7518 56.5808 24.9166C55.8089 28.0814 55.3303 30.1346 54.9598 31.7865C54.6047 33.4229 53.9872 35.0902 57.0439 37.4214C58.7421 38.7182 62.9412 41.3426 66.2295 44.6155C68.8386 47.2091 70.5059 51.2693 70.8146 52.5197C71.1234 53.7393 72.3121 54.3414 71.2623 58.3399C71.2469 58.4016 71.3241 58.4634 71.3704 58.417C72.2195 57.2438 74.9057 52.9057 74.5043 46.1747C74.0412 38.4866 67.0169 31.4623 67.0169 31.4623L61.0733 25.2099C61.0733 25.2099 58.0937 22.4002 60.6564 21.1343C63.2191 19.8684 73.2384 17.3674 73.2384 17.3674" stroke="#843939" stroke-miterlimit="10"/>
<path d="M74.3962 27.4795L67.6498 28.7763C67.6498 28.7763 65.1643 29.0542 67.6035 32.1109" stroke="#843939" stroke-miterlimit="10"/>
<path d="M80.6788 19.4053C80.8486 19.6214 80.9258 19.8375 80.9258 20.0691L78.4866 100.115C78.4866 102.724 62.7398 106.939 43.3034 106.939C23.867 106.939 8.12024 102.709 8.12024 100.115L5.71191 20.0537" stroke="black" stroke-miterlimit="10"/>
<path d="M61.3196 32.2801C61.7055 32.6043 62.2767 32.558 62.6009 32.1721C62.9251 31.7861 62.8788 31.2149 62.4929 30.8907C62.1069 30.5665 61.5357 30.6128 61.2115 30.9988C60.8873 31.3847 60.9336 31.9559 61.3196 32.2801Z" fill="#843939"/>
<path d="M78.4875 12.4117C78.8735 12.7359 79.4447 12.6896 79.7689 12.3037C80.0931 11.9177 80.0468 11.3465 79.6608 11.0223C79.2749 10.6981 78.7037 10.7444 78.3795 11.1304C78.0553 11.5163 78.1016 12.0875 78.4875 12.4117Z" fill="#843939"/>
<path d="M75.1047 14.6969C75.4907 15.0211 76.0619 14.9748 76.3861 14.5888C76.7103 14.2029 76.664 13.6317 76.278 13.3075C75.8921 12.9833 75.3209 13.0296 74.9967 13.4155C74.6725 13.8015 74.7188 14.3727 75.1047 14.6969Z" fill="#843939"/>
<path d="M61.3196 36.9581C61.7055 37.2823 62.2767 37.236 62.6009 36.85C62.9251 36.4641 62.8788 35.8929 62.4929 35.5687C62.1069 35.2445 61.5357 35.2908 61.2115 35.6768C60.8873 36.0627 60.9336 36.6339 61.3196 36.9581Z" fill="#843939"/>
<path d="M65.0559 35.1368C65.4419 35.461 66.0131 35.4147 66.3373 35.0287C66.6615 34.6428 66.6151 34.0716 66.2292 33.7474C65.8432 33.4232 65.272 33.4695 64.9478 33.8555C64.6236 34.2414 64.67 34.8126 65.0559 35.1368Z" fill="#843939"/>
<path d="M65.0559 39.8761C65.4419 40.2003 66.0131 40.154 66.3373 39.768C66.6615 39.3821 66.6151 38.8109 66.2292 38.4867C65.8432 38.1625 65.272 38.2088 64.9478 38.5947C64.6236 38.9807 64.67 39.5519 65.0559 39.8761Z" fill="#843939"/>
<path d="M67.9122 43.3189C68.2981 43.6431 68.8693 43.5968 69.1781 43.2109C69.5023 42.8249 69.456 42.2537 69.07 41.9295C68.6841 41.6053 68.1129 41.6516 67.7887 42.0376C67.4645 42.4235 67.5108 42.9947 67.8967 43.3189" fill="#843939"/>
<path d="M77.9153 18.0313C78.3012 18.3555 78.8724 18.3092 79.1966 17.9233C79.5208 17.5373 79.4745 16.9661 79.0886 16.6419C78.7026 16.3177 78.1314 16.364 77.8072 16.75C77.483 17.1359 77.5293 17.7071 77.9153 18.0313Z" fill="#843939"/>
<path d="M57.2756 34.6424C57.6616 34.9666 58.2328 34.9203 58.557 34.5344C58.8812 34.1484 58.8349 33.5772 58.4489 33.253C58.063 32.9288 57.4918 32.9751 57.1676 33.3611C56.8434 33.747 56.8897 34.3182 57.2756 34.6424Z" fill="#843939"/>
<path d="M80.8187 5.71191C80.8187 5.71191 83.2888 10.3742 81.4362 17.1515C81.4362 17.1515 78.8426 26.476 74.3965 27.4795" stroke="#843939" stroke-miterlimit="10"/>
<path d="M45.8876 78.2892C46.9374 79.191 48.512 79.0456 49.416 77.9983C50.2908 76.951 50.1741 75.3802 49.1244 74.4784C48.0746 73.5766 46.5 73.722 45.596 74.7693C44.692 75.8165 44.8378 77.3874 45.8876 78.2892Z" fill="black"/>
<path d="M60.5309 61.4062C61.177 62.1376 62.1212 62.0046 62.643 61.1735C63.1897 60.3091 63.0903 59.0458 62.4691 58.3477C61.8479 57.6495 60.8788 57.7493 60.357 58.5804C59.8103 59.4448 59.9097 60.7081 60.5309 61.4062Z" fill="black"/>
</g>
</svg>
