<svg width="60" height="72" viewBox="0 0 60 72" fill="none" xmlns="http://www.w3.org/2000/svg">
<mask id="mask0_105_5641" style="mask-type:luminance" maskUnits="userSpaceOnUse" x="0" y="0" width="60" height="72">
<path d="M59.5385 0H0V72H59.5385V0Z" fill="white"/>
</mask>
<g mask="url(#mask0_105_5641)">
<path d="M5.25 51.3058C5.25 53.0902 16.4207 56.0796 29.7699 56.0796C43.1191 56.0796 54.2899 53.1018 54.2899 51.3058" stroke="black" stroke-miterlimit="10"/>
<path d="M55.4368 7.36899C55.5527 7.51962 55.6106 7.67024 55.6106 7.82087L53.9419 62.8115C53.9419 64.5959 43.1189 67.5042 29.7697 67.5042C16.4204 67.5042 5.59736 64.5959 5.59736 62.8115L3.92871 7.82087" stroke="black" stroke-miterlimit="10"/>
<path d="M55.4947 7.821C55.4947 9.97613 43.9532 11.7141 29.7117 11.7141C15.4702 11.7141 3.92871 9.96455 3.92871 7.821C3.92871 5.67745 15.4702 3.92786 29.7117 3.92786C43.9532 3.92786 55.4947 5.66587 55.4947 7.821Z" stroke="black" stroke-miterlimit="10"/>
<path d="M29.9522 18.8918C19.1452 18.8918 12.9837 18.1213 9.21407 16.4999L9.21387 45.1524C13.0049 46.7237 19.3908 50 29.995 50C40.5991 50 46.9957 46.707 50.7867 45.1022L51.2141 16.4497C47.4444 18.0879 40.834 18.8918 29.9416 18.8918" fill="#CCC6AE"/>
</g>
</svg>
