<svg width="75" height="127" viewBox="0 0 75 127" fill="none" xmlns="http://www.w3.org/2000/svg">
<g clip-path="url(#clip0_105_5528)">
<path d="M74.4171 6.56932C74.4171 9.86408 57.8845 12.5524 37.4903 12.5524C17.0961 12.5524 0.563477 9.86408 0.563477 6.56932C0.563477 3.27456 17.0961 0.565979 37.4903 0.565979C57.8845 0.565979 74.4171 3.25434 74.4171 6.54911V6.56932Z" stroke="black" stroke-miterlimit="10"/>
<path d="M74.4171 6.56931L65.648 122.452L64.1194 123.079C52.615 127.829 22.446 127.445 11.1025 122.452L0.563477 6.56931" stroke="black" stroke-miterlimit="10"/>
<path d="M37.4903 12.5524C17.0961 12.5524 0.563477 9.86407 0.563477 6.56931L10.1371 112.002L11.0824 112.345C22.446 117.338 52.615 117.722 64.1194 112.972L66.4323 112.042L74.4171 6.56931C74.4171 9.86407 57.8845 12.5524 37.4903 12.5524Z" stroke="black" stroke-miterlimit="10"/>
<path d="M39.5413 108.283C29.5655 108.283 21.1182 107.11 17.1962 105.149L9.93555 24.6804C18.8253 26.9443 30.2895 27.4294 38.5558 27.4294C46.8221 27.4294 58.3064 26.9443 67.1962 24.6804L60.016 105.21C53.5397 108.747 46.802 108.283 39.5614 108.283" fill="#CCC6AE"/>
<path d="M38.2509 70.136C38.8945 70.6817 39.8398 70.6009 40.3828 69.954C40.9258 69.3072 40.8454 68.3572 40.2018 67.8114C39.5582 67.2657 38.6129 67.3465 38.0698 67.9934C37.5268 68.6402 37.6072 69.5902 38.2509 70.136Z" fill="#EEE9D7"/>
<path d="M43.4999 80.6266C44.1435 81.1724 45.0888 81.0915 45.6318 80.4447C46.1749 79.7979 46.0944 78.8479 45.4508 78.3021C44.8072 77.7563 43.8619 77.8372 43.3189 78.484C42.7758 79.1309 42.8563 80.0809 43.4999 80.6266Z" fill="#EEE9D7"/>
<path d="M50.8411 69.6305C51.2835 70.0146 51.9674 69.9539 52.3495 69.5093C52.7316 69.0443 52.6713 68.3773 52.2288 67.9933C51.7864 67.6092 51.1025 67.6698 50.7204 68.1145C50.3382 68.5592 50.3986 69.2465 50.8411 69.6305Z" fill="#EEE9D7"/>
<path d="M39.4972 92.7141C39.819 92.9769 40.2816 92.9567 40.5632 92.6333C40.8246 92.3099 40.7844 91.845 40.4827 91.562C40.1609 91.279 39.6782 91.3396 39.4167 91.6428C39.1553 91.9662 39.1955 92.4514 39.5173 92.7141" fill="#EEE9D7"/>
<path d="M47.2209 59.5037C47.6634 59.8878 48.3472 59.8271 48.7294 59.3824C49.1115 58.9378 49.0512 58.2505 48.6087 57.8665C48.1662 57.4824 47.4824 57.543 47.1003 57.9877C46.7181 58.4324 46.7785 59.1197 47.2209 59.5037Z" fill="#EEE9D7"/>
<path d="M24.8426 52.4737C25.4863 53.0195 26.4315 52.9386 26.9746 52.2918C27.5176 51.645 27.4372 50.6949 26.7936 50.1492C26.15 49.6034 25.2047 49.6843 24.6616 50.3311C24.1186 50.9779 24.199 51.9279 24.8426 52.4737Z" fill="#EEE9D7"/>
<path d="M30.0917 62.9644C30.7353 63.5101 31.6806 63.4293 32.2236 62.7825C32.7666 62.1356 32.6862 61.1856 32.0426 60.6398C31.399 60.0941 30.4537 60.1749 29.9107 60.8218C29.3676 61.4686 29.4481 62.4186 30.0917 62.9644Z" fill="#EEE9D7"/>
<path d="M37.4329 51.9683C37.8753 52.3523 38.5592 52.2917 38.9413 51.847C39.3234 51.3821 39.2631 50.7151 38.8206 50.331C38.3781 49.947 37.6943 50.0076 37.3122 50.4523C36.93 50.897 36.9904 51.5842 37.4329 51.9683Z" fill="#EEE9D7"/>
<path d="M26.09 75.0519C26.4118 75.3147 26.8744 75.2945 27.1559 74.971C27.4174 74.6476 27.3772 74.1827 27.0755 73.8997C26.7537 73.6168 26.271 73.6774 26.0095 73.9806C25.7481 74.304 25.7883 74.7891 26.1101 75.0519" fill="#EEE9D7"/>
<path d="M33.8127 41.8415C34.2552 42.2255 34.939 42.1649 35.3212 41.7202C35.7033 41.2755 35.643 40.5882 35.2005 40.2042C34.758 39.8201 34.0742 39.8808 33.6921 40.3255C33.3099 40.7702 33.3703 41.4574 33.8127 41.8415Z" fill="#EEE9D7"/>
</g>
<defs>
<clipPath id="clip0_105_5528">
<rect width="75" height="127" fill="white"/>
</clipPath>
</defs>
</svg>
