<svg width="86" height="104" viewBox="0 0 86 104" fill="none" xmlns="http://www.w3.org/2000/svg">
<g clip-path="url(#clip0_105_5546)">
<mask id="mask0_105_5546" style="mask-type:luminance" maskUnits="userSpaceOnUse" x="0" y="0" width="86" height="104">
<path d="M86 0H0V104H86V0Z" fill="white"/>
</mask>
<g mask="url(#mask0_105_5546)">
<path d="M7.58203 74.1088C7.58203 76.6862 23.7175 81.0042 42.9997 81.0042C62.2819 81.0042 78.4174 76.7029 78.4174 74.1088" stroke="black" stroke-miterlimit="10"/>
<path d="M80.0744 10.6443C80.2418 10.8619 80.3254 11.0795 80.3254 11.2971L77.9152 90.728C77.9152 93.3054 62.2818 97.5063 42.9996 97.5063C23.7174 97.5063 8.0841 93.3054 8.0841 90.728L5.67383 11.2971" stroke="black" stroke-miterlimit="10"/>
<path d="M80.1581 11.2971C80.1581 14.41 63.487 16.9205 42.9159 16.9205C22.3449 16.9205 5.67383 14.3933 5.67383 11.2971C5.67383 8.20084 22.3449 5.67365 42.9159 5.67365C63.487 5.67365 80.1581 8.18411 80.1581 11.2971Z" stroke="black" stroke-miterlimit="10"/>
<path d="M42.9245 23.9331C25.942 23.9331 15.9237 21.8515 10 19.0855L10.3356 68.7306C16.2929 71.411 26.328 77 42.9916 77C59.6552 77 69.7071 71.3825 75.6644 68.645L76 19C70.0763 21.7945 60.0244 23.9331 42.9077 23.9331" fill="#A15231"/>
</g>
<path d="M31.6018 54.41L33.6103 40.9372C33.6438 40.6527 33.5936 40.3682 33.4429 40.1339L33.2421 39.8828C33.0412 39.682 32.7902 39.5481 32.4721 39.4979L18.0774 37.3556C17.3577 37.2552 16.6714 37.7071 16.571 38.3933L14.5624 51.8661C14.5122 52.1506 14.5959 52.4519 14.7466 52.6862L14.8972 52.887C15.0981 53.1046 15.3659 53.2552 15.6839 53.3054L30.0786 55.4477C30.4971 55.5146 30.882 55.3808 31.1666 55.1464C31.3842 54.9623 31.5348 54.7113 31.585 54.41H31.6018Z" stroke="black" stroke-miterlimit="10"/>
<path d="M36.2209 60.2343L38.2295 46.7783C38.2797 46.4268 38.1792 46.0753 37.9449 45.8243L33.4256 40.1506C33.5763 40.3849 33.6432 40.6695 33.593 40.954L31.5845 54.4268C31.5343 54.7113 31.3836 54.9791 31.166 55.1465L35.769 61.0042C36.0033 60.8201 36.1707 60.5523 36.2209 60.2511V60.2343Z" stroke="black" stroke-miterlimit="10"/>
<path d="M35.7688 60.9875L31.1659 55.1297C30.898 55.3808 30.4963 55.4979 30.0779 55.431L15.6832 53.2887C15.3651 53.2385 15.0806 53.0879 14.8965 52.8703L19.4492 58.6109L19.4994 58.6611C19.7003 58.8954 20.0016 59.0628 20.3363 59.113L34.7143 61.2552C35.116 61.3222 35.501 61.205 35.7688 60.9707V60.9875Z" stroke="black" stroke-miterlimit="10" stroke-linejoin="round"/>
<path d="M63.1855 59.7824L53.4607 50.2427C53.2431 50.0419 52.9921 49.9247 52.7075 49.908H52.3895C52.1217 49.9749 51.8539 50.0921 51.6363 50.3096L41.4428 60.6862C40.9239 61.205 40.9072 62.0251 41.4093 62.5105L51.1341 72.0502C51.335 72.2511 51.6195 72.3682 51.9041 72.3849H52.1384C52.423 72.3515 52.7075 72.2176 52.9418 71.9833L63.1353 61.6067C63.4366 61.3055 63.5705 60.9205 63.5203 60.5523C63.5203 60.2678 63.3864 60 63.1688 59.7824H63.1855Z" stroke="black" stroke-miterlimit="10"/>
<path d="M70.6167 59.4646L60.8919 49.9248C60.6409 49.6738 60.2894 49.5566 59.9546 49.5901L52.707 49.9081C52.9916 49.9248 53.2426 50.042 53.4602 50.2428L63.185 59.7825C63.3859 59.9834 63.5031 60.2679 63.5365 60.5524L70.985 60.2846C70.985 59.9834 70.8511 59.6989 70.6335 59.4813L70.6167 59.4646Z" stroke="black" stroke-miterlimit="10"/>
<path d="M70.969 60.2677L63.5205 60.5355C63.554 60.9037 63.4201 61.2886 63.1356 61.5899L52.9421 71.9665C52.7245 72.2008 52.44 72.3347 52.1387 72.3681L59.4532 72.0669H59.5201C59.8214 72.0334 60.1227 71.8995 60.3738 71.6485L70.5505 61.2719C70.8351 60.9874 70.969 60.6192 70.9355 60.251L70.969 60.2677Z" stroke="black" stroke-miterlimit="10" stroke-linejoin="round"/>
</g>
<defs>
<clipPath id="clip0_105_5546">
<rect width="86" height="104" fill="white"/>
</clipPath>
</defs>
</svg>
