<svg width="86" height="104" viewBox="0 0 86 104" fill="none" xmlns="http://www.w3.org/2000/svg">
<g clip-path="url(#clip0_105_5585)">
<mask id="mask0_105_5585" style="mask-type:luminance" maskUnits="userSpaceOnUse" x="0" y="0" width="86" height="104">
<path d="M86 0H0V104H86V0Z" fill="white"/>
</mask>
<g mask="url(#mask0_105_5585)">
<path d="M7.58203 74.1088C7.58203 76.6862 23.7175 81.0042 42.9997 81.0042C62.2819 81.0042 78.4174 76.7029 78.4174 74.1088" stroke="black" stroke-miterlimit="10"/>
<path d="M80.0744 10.6443C80.2418 10.8619 80.3254 11.0795 80.3254 11.2971L77.9152 90.728C77.9152 93.3054 62.2818 97.5063 42.9996 97.5063C23.7174 97.5063 8.0841 93.3054 8.0841 90.728L5.67383 11.2971" stroke="black" stroke-miterlimit="10"/>
<path d="M80.1581 11.2971C80.1581 14.41 63.487 16.9205 42.9159 16.9205C22.3449 16.9205 5.67383 14.3933 5.67383 11.2971C5.67383 8.20084 22.3449 5.67365 42.9159 5.67365C63.487 5.67365 80.1581 8.18411 80.1581 11.2971Z" stroke="black" stroke-miterlimit="10"/>
<path d="M42.9162 45.7406C25.9773 45.7406 15.9847 44.5188 10.0762 42.8954L10.4109 72.0335C16.3529 73.6067 26.3623 76.887 42.9831 76.887C59.604 76.887 69.6301 73.59 75.5721 71.9833L75.9068 42.8452C69.9983 44.4854 59.9722 45.7406 42.8994 45.7406" fill="#BAA868"/>
</g>
<path d="M64.1426 45.198L54.4178 35.6582C54.2002 35.4574 53.9491 35.3402 53.6645 35.3235H53.3465C53.0787 35.3904 52.8109 35.5076 52.5933 35.7252L42.3999 46.1017C41.881 46.6206 41.8642 47.4406 42.3664 47.926L52.0912 57.4657C52.292 57.6666 52.5766 57.7837 52.8611 57.8005H53.0955C53.38 57.767 53.6645 57.6331 53.8989 57.3988L64.0923 47.0222C64.3936 46.721 64.5275 46.336 64.4773 45.9678C64.4773 45.6833 64.3434 45.4155 64.1258 45.198H64.1426Z" stroke="black" stroke-miterlimit="10"/>
<path d="M71.5738 44.8801L61.849 35.3403C61.5979 35.0893 61.2464 34.9721 60.9116 35.0056L53.6641 35.3236C53.9486 35.3403 54.1997 35.4575 54.4173 35.6583L64.1421 45.1981C64.3429 45.3989 64.4601 45.6834 64.4936 45.9679L71.942 45.7002C71.942 45.3989 71.8081 45.1144 71.5905 44.8968L71.5738 44.8801Z" stroke="black" stroke-miterlimit="10"/>
<path d="M71.926 45.6832L64.4776 45.951C64.511 46.3192 64.3771 46.7042 64.0926 47.0054L53.8991 57.382C53.6815 57.6163 53.397 57.7502 53.0957 57.7837L60.4102 57.4824H60.4772C60.7785 57.4489 61.0797 57.315 61.3308 57.064L71.5075 46.6874C71.7921 46.4029 71.926 46.0347 71.8925 45.6665L71.926 45.6832Z" stroke="black" stroke-miterlimit="10" stroke-linejoin="round"/>
<g clip-path="url(#clip1_105_5585)">
<path d="M41.4232 63.6559C37.0662 65.4625 31.9467 65.2416 27.6546 62.6608C27.2553 62.4127 27.1523 61.8591 27.4157 61.4693L35.5556 49.4952L41.8533 62.518C42.0576 62.9429 41.8788 63.4705 41.4386 63.6654L41.4232 63.6559Z" stroke="black" stroke-linejoin="bevel"/>
<path d="M26.2183 61.6836C22.2374 58.6361 20.1513 53.9769 20.2154 49.2483C20.2256 48.7863 20.6501 48.4114 21.1178 48.4464L35.5305 49.501L27.3906 61.4751C27.1426 61.8745 26.5736 61.9681 26.1934 61.6894L26.2183 61.6836Z" stroke="black" stroke-linejoin="bevel"/>
<path d="M21.133 48.456C20.6653 48.4209 20.2904 47.9965 20.3658 47.5324C20.6529 45.2201 21.4882 42.9502 22.8721 40.8934C24.2561 38.8367 26.0763 37.2424 28.122 36.1076C28.5411 35.8783 29.0686 36.0569 29.2729 36.4818L35.5706 49.5047L21.1579 48.4501L21.133 48.456Z" stroke="black" stroke-linejoin="bevel"/>
<path d="M35.5459 49.5105L29.2482 36.4877" stroke="black" stroke-linejoin="bevel"/>
<path d="M31.8238 34.9794C30.939 33.0461 28.5646 32.3803 26.7642 33.4972C24.3783 34.9742 22.1627 37.0679 20.6108 39.3609C14.607 48.1701 17.4779 60.4055 27.1851 65.541C32.4358 68.2915 38.7483 68.1678 43.8775 65.5635C45.2402 64.8772 45.8146 63.2329 45.1382 61.8549L31.818 34.9545" stroke="black" stroke-miterlimit="10"/>
<path d="M27.7689 53.7057L30.5602 51.8844" stroke="black" stroke-miterlimit="10" stroke-linecap="round"/>
<path d="M35.5156 59.6671L35.3942 55.1" stroke="black" stroke-miterlimit="10" stroke-linecap="round"/>
<path d="M30.2536 45.0101C30.1103 44.4528 29.523 44.1306 28.981 44.2836C28.4391 44.4366 28.1014 45.0145 28.2542 45.5564C28.3975 46.1138 28.9848 46.436 29.5363 46.2677C30.0936 46.1242 30.4159 45.5368 30.2631 44.9948" fill="black"/>
</g>
</g>
<defs>
<clipPath id="clip0_105_5585">
<rect width="86" height="104" fill="white"/>
</clipPath>
<clipPath id="clip1_105_5585">
<rect width="35" height="30" fill="white" transform="translate(39.7314 73.9514) rotate(-148.154)"/>
</clipPath>
</defs>
</svg>
